HIERARCHY
ROOT Hips
{
	OFFSET 0.000000 0.000000 0.000000
	CHANNELS 6 Xposition Yposition Zposition Zrotation Yrotation Xrotation 
	JOINT Spine1
	{
		OFFSET -0.013727 5.003763 -0.053727
		CHANNELS 3 Zrotation Yrotation Xrotation
		JOINT Spine2
		{
			OFFSET -0.000000 7.125302 -0.029825
			CHANNELS 3 Zrotation Yrotation Xrotation
			JOINT Chest
			{
				OFFSET -0.000001 7.550064 -0.815971
				CHANNELS 3 Zrotation Yrotation Xrotation
				JOINT Neck1
				{
					OFFSET -0.181676 26.311296 -0.553349
					CHANNELS 3 Zrotation Yrotation Xrotation
					JOINT Neck2
					{
						OFFSET -0.000003 7.709400 2.302585
						CHANNELS 3 Zrotation Yrotation Xrotation
						JOINT Head
						{
							OFFSET -0.000005 6.128912 1.953709
							CHANNELS 3 Zrotation Yrotation Xrotation
							JOINT HeadEnd
							{
								OFFSET 0.003598 16.065401 -1.835379
								CHANNELS 3 Zrotation Yrotation Xrotation
								End Site
								{
									OFFSET 0.000000 0.000000 0.000000
								}
							}
							JOINT Jaw
							{
								OFFSET 0.002637 0.475592 3.094941
								CHANNELS 3 Zrotation Yrotation Xrotation
								End Site
								{
									OFFSET 0.000000 0.000000 0.000000
								}
							}
							JOINT LeftEye
							{
								OFFSET 3.206381 5.380206 7.586883
								CHANNELS 3 Zrotation Yrotation Xrotation
								End Site
								{
									OFFSET 0.000000 0.000000 0.000000
								}
							}
							JOINT RightEye
							{
								OFFSET -3.222440 5.361866 7.558233
								CHANNELS 3 Zrotation Yrotation Xrotation
								End Site
								{
									OFFSET 0.000000 0.000000 0.000000
								}
							}
						}
					}
				}
				JOINT LeftShoulder
				{
					OFFSET 1.621652 23.237164 5.113413
					CHANNELS 3 Zrotation Yrotation Xrotation
					JOINT LeftArm
					{
						OFFSET 14.919845 -0.000000 -5.502326
						CHANNELS 3 Zrotation Yrotation Xrotation
						JOINT LeftForeArm
						{
							OFFSET 28.739309 0.000003 -0.002588
							CHANNELS 3 Zrotation Yrotation Xrotation
							JOINT LeftHand
							{
								OFFSET 27.093979 -0.000003 0.002609
								CHANNELS 3 Zrotation Yrotation Xrotation
								JOINT LeftHandThumb1
								{
									OFFSET 2.276480 -1.392046 3.191413
									CHANNELS 3 Zrotation Yrotation Xrotation
									JOINT LeftHandThumb2
									{
										OFFSET 4.012842 -1.828125 1.641655
										CHANNELS 3 Zrotation Yrotation Xrotation
										JOINT LeftHandThumb3
										{
											OFFSET 2.798516 0.000000 -0.000004
											CHANNELS 3 Zrotation Yrotation Xrotation
											JOINT LeftHandThumbEnd
											{
												OFFSET 3.180791 -0.000001 0.000003
												CHANNELS 3 Zrotation Yrotation Xrotation
												End Site
												{
													OFFSET 0.000000 0.000000 0.000000
												}
											}
										}
									}
								}
								JOINT LeftHandIndex1
								{
									OFFSET 3.247554 -0.531998 2.296170
									CHANNELS 3 Zrotation Yrotation Xrotation
									JOINT LeftHandIndex2
									{
										OFFSET 6.364580 0.012062 0.178600
										CHANNELS 3 Zrotation Yrotation Xrotation
										JOINT LeftHandIndex3
										{
											OFFSET 3.662367 0.000001 0.000000
											CHANNELS 3 Zrotation Yrotation Xrotation
											JOINT LeftHandIndex4
											{
												OFFSET 2.329242 0.000000 0.000002
												CHANNELS 3 Zrotation Yrotation Xrotation
												JOINT LeftHandIndexEnd
												{
													OFFSET 2.759619 -0.180540 -0.113024
													CHANNELS 3 Zrotation Yrotation Xrotation
													End Site
													{
														OFFSET 0.000000 0.000000 0.000000
													}
												}
											}
										}
									}
								}
								JOINT LeftHandMiddle1
								{
									OFFSET 3.163499 0.240982 1.000333
									CHANNELS 3 Zrotation Yrotation Xrotation
									JOINT LeftHandMiddle2
									{
										OFFSET 6.190778 -0.259276 -1.002548
										CHANNELS 3 Zrotation Yrotation Xrotation
										JOINT LeftHandMiddle3
										{
											OFFSET 4.356523 -0.000006 0.000000
											CHANNELS 3 Zrotation Yrotation Xrotation
											JOINT LeftHandMiddle4
											{
												OFFSET 2.996875 -0.000007 0.000000
												CHANNELS 3 Zrotation Yrotation Xrotation
												JOINT LeftHandMiddleEnd
												{
													OFFSET 2.304294 -0.294571 -0.031739
													CHANNELS 3 Zrotation Yrotation Xrotation
													End Site
													{
														OFFSET 0.000000 0.000000 0.000000
													}
												}
											}
										}
									}
								}
								JOINT LeftHandRing1
								{
									OFFSET 2.882642 -0.053650 -0.322543
									CHANNELS 3 Zrotation Yrotation Xrotation
									JOINT LeftHandRing2
									{
										OFFSET 5.854543 -0.486203 -1.373841
										CHANNELS 3 Zrotation Yrotation Xrotation
										JOINT LeftHandRing3
										{
											OFFSET 4.350581 0.000000 0.000004
											CHANNELS 3 Zrotation Yrotation Xrotation
											JOINT LeftHandRing4
											{
												OFFSET 2.651325 0.000006 0.000003
												CHANNELS 3 Zrotation Yrotation Xrotation
												JOINT LeftHandRingEnd
												{
													OFFSET 1.936111 0.077684 -0.000070
													CHANNELS 3 Zrotation Yrotation Xrotation
													End Site
													{
														OFFSET 0.000000 0.000000 0.000000
													}
												}
											}
										}
									}
								}
								JOINT LeftHandPinky1
								{
									OFFSET 2.865500 -0.310004 -1.600377
									CHANNELS 3 Zrotation Yrotation Xrotation
									JOINT LeftHandPinky2
									{
										OFFSET 5.087853 -1.331142 -1.771231
										CHANNELS 3 Zrotation Yrotation Xrotation
										JOINT LeftHandPinky3
										{
											OFFSET 3.070975 0.000003 -0.000000
											CHANNELS 3 Zrotation Yrotation Xrotation
											JOINT LeftHandPinky4
											{
												OFFSET 1.549667 -0.000000 0.000000
												CHANNELS 3 Zrotation Yrotation Xrotation
												JOINT LeftHandPinkyEnd
												{
													OFFSET 1.944895 -0.157801 0.057220
													CHANNELS 3 Zrotation Yrotation Xrotation
													End Site
													{
														OFFSET 0.000000 0.000000 0.000000
													}
												}
											}
										}
									}
								}
							}
						}
					}
				}
				JOINT RightShoulder
				{
					OFFSET -1.380118 23.180309 5.214158
					CHANNELS 3 Zrotation Yrotation Xrotation
					JOINT RightArm
					{
						OFFSET -15.037197 0.000012 -5.545604
						CHANNELS 3 Zrotation Yrotation Xrotation
						JOINT RightForeArm
						{
							OFFSET -28.736639 0.000002 -0.002597
							CHANNELS 3 Zrotation Yrotation Xrotation
							JOINT RightHand
							{
								OFFSET -27.133619 0.000000 0.002612
								CHANNELS 3 Zrotation Yrotation Xrotation
								JOINT RightHandThumb1
								{
									OFFSET -2.274037 -1.383990 3.163128
									CHANNELS 3 Zrotation Yrotation Xrotation
									JOINT RightHandThumb2
									{
										OFFSET -4.011429 -1.827467 1.640915
										CHANNELS 3 Zrotation Yrotation Xrotation
										JOINT RightHandThumb3
										{
											OFFSET -2.794934 -0.000003 -0.000003
											CHANNELS 3 Zrotation Yrotation Xrotation
											JOINT RightHandThumbEnd
											{
												OFFSET -3.183855 0.000003 -0.000001
												CHANNELS 3 Zrotation Yrotation Xrotation
												End Site
												{
													OFFSET 0.000000 0.000000 0.000000
												}
											}
										}
									}
								}
								JOINT RightHandIndex1
								{
									OFFSET -3.253270 -0.520059 2.282866
									CHANNELS 3 Zrotation Yrotation Xrotation
									JOINT RightHandIndex2
									{
										OFFSET -6.341918 0.012473 0.178265
										CHANNELS 3 Zrotation Yrotation Xrotation
										JOINT RightHandIndex3
										{
											OFFSET -3.654875 -0.000009 -0.000001
											CHANNELS 3 Zrotation Yrotation Xrotation
											JOINT RightHandIndex4
											{
												OFFSET -2.327587 0.000000 0.000000
												CHANNELS 3 Zrotation Yrotation Xrotation
												JOINT RightHandIndexEnd
												{
													OFFSET -2.761789 -0.180657 -0.113078
													CHANNELS 3 Zrotation Yrotation Xrotation
													End Site
													{
														OFFSET 0.000000 0.000000 0.000000
													}
												}
											}
										}
									}
								}
								JOINT RightHandMiddle1
								{
									OFFSET -3.168107 0.246593 1.001031
									CHANNELS 3 Zrotation Yrotation Xrotation
									JOINT RightHandMiddle2
									{
										OFFSET -6.180830 -0.258836 -1.000896
										CHANNELS 3 Zrotation Yrotation Xrotation
										JOINT RightHandMiddle3
										{
											OFFSET -4.348905 -0.000001 -0.000001
											CHANNELS 3 Zrotation Yrotation Xrotation
											JOINT RightHandMiddle4
											{
												OFFSET -3.000243 -0.000003 -0.000003
												CHANNELS 3 Zrotation Yrotation Xrotation
												JOINT RightHandMiddleEnd
												{
													OFFSET -2.302518 -0.294370 -0.031705
													CHANNELS 3 Zrotation Yrotation Xrotation
													End Site
													{
														OFFSET 0.000000 0.000000 0.000000
													}
												}
											}
										}
									}
								}
								JOINT RightHandRing1
								{
									OFFSET -2.885694 -0.067952 -0.308858
									CHANNELS 3 Zrotation Yrotation Xrotation
									JOINT RightHandRing2
									{
										OFFSET -5.854196 -0.486133 -1.373732
										CHANNELS 3 Zrotation Yrotation Xrotation
										JOINT RightHandRing3
										{
											OFFSET -4.338814 -0.000003 -0.000000
											CHANNELS 3 Zrotation Yrotation Xrotation
											JOINT RightHandRing4
											{
												OFFSET -2.654906 -0.000004 0.000004
												CHANNELS 3 Zrotation Yrotation Xrotation
												JOINT RightHandRingEnd
												{
													OFFSET -1.933570 0.077524 -0.000053
													CHANNELS 3 Zrotation Yrotation Xrotation
													End Site
													{
														OFFSET 0.000000 0.000000 0.000000
													}
												}
											}
										}
									}
								}
								JOINT RightHandPinky1
								{
									OFFSET -2.866429 -0.342798 -1.584145
									CHANNELS 3 Zrotation Yrotation Xrotation
									JOINT RightHandPinky2
									{
										OFFSET -5.091370 -1.332054 -1.772385
										CHANNELS 3 Zrotation Yrotation Xrotation
										JOINT RightHandPinky3
										{
											OFFSET -3.062666 -0.000006 -0.000000
											CHANNELS 3 Zrotation Yrotation Xrotation
											JOINT RightHandPinky4
											{
												OFFSET -1.546527 0.000006 -0.000003
												CHANNELS 3 Zrotation Yrotation Xrotation
												JOINT RightHandPinkyEnd
												{
													OFFSET -1.945122 -0.157721 0.057211
													CHANNELS 3 Zrotation Yrotation Xrotation
													End Site
													{
														OFFSET 0.000000 0.000000 0.000000
													}
												}
											}
										}
									}
								}
							}
						}
					}
				}
			}
		}
	}
	JOINT LeftLeg
	{
		OFFSET 10.043214 -8.434526 2.595655
		CHANNELS 3 Zrotation Yrotation Xrotation
		JOINT LeftShin
		{
			OFFSET -0.000002 -43.221752 -0.802913
			CHANNELS 3 Zrotation Yrotation Xrotation
			JOINT LeftFoot
			{
				OFFSET 0.000001 -42.155094 -3.481522
				CHANNELS 3 Zrotation Yrotation Xrotation
				JOINT LeftToeBase
				{
					OFFSET 0.000000 -5.059474 13.231529
					CHANNELS 3 Zrotation Yrotation Xrotation
					JOINT LeftToeEnd
					{
						OFFSET -0.009607 -1.647616 6.513017
						CHANNELS 3 Zrotation Yrotation Xrotation
						End Site
						{
							OFFSET 0.000000 0.000000 0.000000
						}
					}
				}
			}
		}
	}
	JOINT RightLeg
	{
		OFFSET -10.047277 -8.295259 2.620317
		CHANNELS 3 Zrotation Yrotation Xrotation
		JOINT RightShin
		{
			OFFSET 0.000001 -43.362209 -0.805555
			CHANNELS 3 Zrotation Yrotation Xrotation
			JOINT RightFoot
			{
				OFFSET 0.000002 -42.117393 -3.478398
				CHANNELS 3 Zrotation Yrotation Xrotation
				JOINT RightToeBase
				{
					OFFSET -0.000001 -5.079609 13.284196
					CHANNELS 3 Zrotation Yrotation Xrotation
					JOINT RightToeEnd
					{
						OFFSET 0.009532 -1.634384 6.460591
						CHANNELS 3 Zrotation Yrotation Xrotation
						End Site
						{
							OFFSET 0.000000 0.000000 0.000000
						}
					}
				}
			}
		}
	}
}
MOTION
Frames: 4
Frame Time: 0.033333
3.537225 96.580894 -1.229912 -0.187661 0.192987 -0.337890 0.511644 -0.320061 3.512679 -0.097222 -0.940498 -3.525654 -0.677033 -3.303198 8.869718 2.705256 1.457428 5.676877 -3.425993 -9.705680 -3.042297 -1.608799 -12.544245 -7.243743 0.000077 -0.000022 0.000006 0.003525 -0.084857 -0.048360 0.778252 -3.855948 -10.805848 -0.782168 3.687144 -10.841379 0.849095 -11.846661 8.646704 -55.925678 -59.459846 8.496175 -178.539093 -59.542137 -179.820404 1.931127 6.728092 -16.604774 -5.882102 9.861278 0.702589 -10.936861 -0.360574 7.156196 0.000001 8.774812 0.000000 -16.522530 18.609762 5.972929 -1.844029 2.498501 -2.507275 -10.163592 4.678940 4.621106 -20.975996 -0.000001 0.000004 -21.226255 2.451696 -3.593993 0.000000 -0.000006 -0.000001 -1.362681 2.240795 -0.746322 -21.334890 0.584911 3.008317 -13.821198 -0.000002 0.000001 -23.887131 -0.249077 -0.839483 -62.175659 2.347826 -1.458112 -0.294026 1.679686 0.833254 -14.218195 0.093216 1.300580 -34.212006 -0.287563 0.967171 -20.033178 0.964535 1.212842 0.000000 0.000001 0.000002 -3.440386 0.788233 0.501656 -15.928167 -3.167305 2.999704 -6.338817 0.000001 0.000003 -18.123415 3.648178 -4.905660 -0.000005 0.000001 -0.000002 -1.866836 17.321045 6.522686 18.235016 31.391920 -44.921856 -177.163635 66.804207 -177.453171 -2.458330 3.822010 -10.312096 2.243541 -5.255034 -3.180156 14.282875 -0.826596 6.952496 -0.000003 -12.690593 -0.000000 15.624441 -17.416004 2.781571 1.665663 -1.955921 -2.878297 4.727794 -4.170583 4.993917 11.020513 0.000003 -0.000001 12.109033 -3.735708 -2.866777 0.000001 0.000001 0.000000 1.291984 -1.928546 -1.498089 14.800113 0.567467 3.865604 14.242553 -1.341734 -6.660649 19.631939 0.143924 -0.648243 49.812405 -0.805223 -6.222019 0.353028 -1.511148 -0.031939 20.222767 3.684305 2.316627 18.787245 0.000005 -0.000000 10.751610 -0.479868 1.397904 0.000000 0.000001 0.000000 3.273802 0.305947 -0.580111 21.486790 11.830361 2.266130 8.162915 0.000002 -0.000000 18.399052 -3.798980 -4.940568 0.000003 0.000000 -0.000001 6.367438 5.792168 -8.752070 -0.044432 -0.348848 28.434486 -7.630760 2.337460 -18.747410 1.636764 -1.911253 -0.679451 0.000000 0.000000 0.000002 -7.686227 -18.227552 -21.875452 0.110082 0.271074 23.523447 8.044621 -6.057486 1.031100 -1.431538 0.891192 -0.187713 0.000000 0.000000 -0.000001 
3.482613 96.609810 -1.230517 -0.162491 0.220073 -0.363021 0.475766 -0.327898 3.544772 -0.079616 -0.946557 -3.518692 -0.699119 -3.313981 8.919149 2.769319 1.467558 5.584712 -3.491246 -9.739353 -3.029011 -1.658867 -12.473978 -7.178362 0.000077 -0.000022 0.000006 0.003805 -0.078183 -0.043407 0.773875 -3.847631 -10.798531 -0.779987 3.690978 -10.839924 0.752539 -11.763974 8.613173 -55.884377 -59.291653 8.474483 -178.549957 -59.518154 -179.977982 1.853165 6.651141 -17.232006 -5.882102 9.861277 0.702589 -10.936858 -0.360575 7.156197 0.000001 8.774814 -0.000002 -16.497574 18.595804 5.935795 -1.844030 2.498502 -2.507276 -10.163589 4.678940 4.621102 -20.975994 -0.000004 0.000002 -21.226255 2.451692 -3.593994 0.000000 -0.000005 -0.000001 -1.362680 2.240797 -0.746321 -21.334887 0.584908 3.008320 -13.821194 -0.000002 0.000002 -23.887131 -0.249078 -0.839481 -62.115166 2.207482 -1.468101 -0.294023 1.679686 0.833256 -14.218192 0.093214 1.300578 -34.211998 -0.287566 0.967170 -20.033176 0.964534 1.212841 0.000000 0.000001 0.000003 -3.440384 0.788232 0.501654 -15.928165 -3.167305 2.999703 -6.338815 -0.000001 0.000001 -18.123411 3.648176 -4.905661 -0.000004 0.000001 -0.000002 -1.895598 17.327511 6.477331 18.232876 31.430384 -45.039742 -177.611649 66.811913 -177.837357 -2.328239 3.903829 -10.722746 2.243540 -5.255033 -3.180156 14.282875 -0.826594 6.952495 -0.000004 -12.690588 0.000002 15.608527 -17.314833 2.829612 1.665664 -1.955918 -2.878297 4.727796 -4.170583 4.993919 11.020513 0.000001 -0.000001 12.109032 -3.735709 -2.866781 0.000001 0.000001 0.000000 1.291984 -1.928547 -1.498087 14.800114 0.567469 3.865603 14.242553 -1.341735 -6.660648 19.631939 0.143927 -0.648244 49.666351 -0.762806 -6.137827 0.353028 -1.511151 -0.031939 20.222767 3.684306 2.316626 18.787245 0.000005 -0.000000 10.751610 -0.479868 1.397904 0.000000 0.000001 0.000000 3.273803 0.305946 -0.580111 21.486797 11.830361 2.266130 8.162917 0.000001 -0.000000 18.399055 -3.798978 -4.940567 0.000003 0.000000 -0.000000 6.378057 5.731783 -8.642415 -0.046672 -0.332476 28.247736 -7.690138 2.365742 -18.647697 1.631057 -1.919737 -0.659086 0.000000 -0.000000 0.000002 -7.694343 -18.223774 -21.792555 0.098823 0.233229 23.435856 8.173263 -5.856923 1.046199 -1.430324 0.879057 -0.328617 0.000000 -0.000001 -0.000001 
3.461069 96.614433 -1.270971 -0.132931 0.337826 -0.348129 0.458383 -0.325819 3.565179 -0.079978 -0.957930 -3.512223 -0.725983 -3.322552 8.933820 2.827690 1.467387 5.526454 -3.525545 -9.779995 -3.038522 -1.717341 -12.454293 -7.203850 0.000077 -0.000023 0.000006 0.003028 -0.078099 -0.040912 0.764350 -3.846342 -10.789380 -0.772438 3.688066 -10.830794 0.716009 -11.740093 8.548842 -55.914326 -59.121201 8.378614 -178.363495 -59.520969 179.769806 1.817005 6.576993 -17.787012 -5.882102 9.861278 0.702589 -10.936860 -0.360575 7.156197 -0.000000 8.774813 -0.000001 -16.432695 18.582047 5.926416 -1.844031 2.498504 -2.507276 -10.163592 4.678941 4.621103 -20.975998 -0.000000 0.000003 -21.226259 2.451696 -3.593997 0.000000 -0.000006 -0.000001 -1.362681 2.240798 -0.746323 -21.334892 0.584911 3.008320 -13.821197 0.000000 0.000001 -23.887133 -0.249075 -0.839482 -62.020901 2.171534 -1.456872 -0.294024 1.679685 0.833254 -14.218194 0.093215 1.300580 -34.212006 -0.287561 0.967169 -20.033180 0.964535 1.212842 0.000000 0.000001 0.000002 -3.440383 0.788232 0.501655 -15.928171 -3.167304 2.999707 -6.338816 -0.000001 0.000001 -18.123415 3.648178 -4.905665 -0.000005 0.000000 -0.000002 -1.941940 17.303347 6.377324 18.271492 31.492197 -45.224823 -178.012619 66.897499 -178.223618 -2.188770 4.074502 -11.248630 2.243539 -5.255033 -3.180155 14.282877 -0.826593 6.952497 -0.000002 -12.690587 -0.000002 15.562379 -17.274086 2.864597 1.665663 -1.955921 -2.878295 4.727797 -4.170582 4.993918 11.020510 0.000003 -0.000000 12.109034 -3.735708 -2.866779 0.000002 0.000001 0.000000 1.291984 -1.928546 -1.498088 14.800117 0.567466 3.865604 14.242554 -1.341735 -6.660648 19.631941 0.143923 -0.648244 49.565483 -0.738952 -6.102709 0.353029 -1.511148 -0.031941 20.222773 3.684305 2.316630 18.787249 0.000004 0.000000 10.751614 -0.479867 1.397905 -0.000000 0.000000 0.000000 3.273805 0.305947 -0.580110 21.486795 11.830361 2.266134 8.162917 0.000000 -0.000000 18.399054 -3.798978 -4.940568 0.000003 0.000000 -0.000000 6.369759 5.727278 -8.709541 -0.049784 -0.316476 28.240391 -7.769612 2.284028 -18.586926 1.627811 -1.924691 -0.596544 0.000000 -0.000000 0.000002 -7.716918 -18.324903 -21.807314 0.099423 0.224647 23.438545 8.260166 -5.718188 1.048760 -1.429516 0.897031 -0.400252 -0.000000 -0.000001 -0.000001 
3.425987 96.608040 -1.338119 -0.089181 0.521474 -0.307490 0.439163 -0.309269 3.588553 -0.086776 -0.973901 -3.504657 -0.751290 -3.352757 8.917938 2.906764 1.447324 5.456952 -3.565932 -9.843475 -3.030914 -1.771567 -12.534873 -7.236323 0.000077 -0.000023 0.000006 0.004744 -0.078015 -0.040518 0.757781 -3.846101 -10.778213 -0.763998 3.691760 -10.822297 0.725100 -11.759632 8.497384 -56.024464 -58.967194 8.277781 -178.037399 -59.572266 179.453583 1.892681 6.507726 -18.420403 -5.882102 9.861278 0.702590 -10.936858 -0.360577 7.156197 0.000001 8.774815 0.000001 -16.318171 18.502649 5.948517 -1.844032 2.498504 -2.507276 -10.163591 4.678938 4.621105 -20.975996 -0.000005 0.000003 -21.226255 2.451690 -3.593995 0.000000 -0.000006 -0.000001 -1.362679 2.240795 -0.746322 -21.334896 0.584908 3.008320 -13.821197 -0.000003 0.000001 -23.887131 -0.249077 -0.839480 -61.949524 2.170976 -1.473292 -0.294024 1.679686 0.833256 -14.218192 0.093213 1.300580 -34.212006 -0.287563 0.967169 -20.033180 0.964535 1.212843 0.000000 -0.000001 -0.000000 -3.440384 0.788233 0.501654 -15.928171 -3.167307 2.999705 -6.338817 -0.000002 0.000002 -18.123415 3.648176 -4.905661 -0.000005 -0.000000 -0.000003 -2.013466 17.258245 6.234911 18.341274 31.590452 -45.435543 -178.400436 66.990646 -178.602417 -2.034455 4.262930 -11.993203 2.243541 -5.255032 -3.180155 14.282878 -0.826593 6.952497 -0.000003 -12.690592 0.000001 15.519482 -17.243973 2.875849 1.665666 -1.955920 -2.878298 4.727793 -4.170584 4.993918 11.020513 0.000004 -0.000000 12.109034 -3.735708 -2.866779 0.000001 0.000001 0.000001 1.291984 -1.928548 -1.498088 14.800111 0.567469 3.865603 14.242551 -1.341736 -6.660649 19.631941 0.143926 -0.648242 49.542671 -0.719926 -6.063864 0.353027 -1.511149 -0.031939 20.222773 3.684306 2.316629 18.787245 0.000007 0.000001 10.751611 -0.479866 1.397905 0.000000 0.000000 0.000000 3.273804 0.305947 -0.580110 21.486794 11.830363 2.266132 8.162916 0.000001 0.000000 18.399054 -3.798979 -4.940566 0.000003 -0.000000 -0.000000 6.353421 5.724624 -8.871983 -0.046073 -0.298644 28.303072 -7.852093 2.106441 -18.522984 1.623922 -1.932710 -0.537050 0.000000 -0.000000 0.000002 -7.743968 -18.462091 -21.890778 0.098142 0.213497 23.517277 8.348487 -5.650030 1.020517 -1.429035 0.891138 -0.390167 0.000000 -0.000001 -0.000001 
